<svg height="512pt" viewBox="-3 0 512 512.00053" width="512pt" xmlns="http://www.w3.org/2000/svg"><path d="m272.476562 440.941406c-4.011718-1.21875-8.253906 1.046875-9.472656 5.058594l-10.675781 35.15625-53.660156-138.492188c-2.128907-5.488281-9.433594-6.5625-13.058594-1.941406l-78.648437 100.269532 11.742187-117.089844c.542969-5.429688-4.664063-9.652344-9.871094-7.988282l-81.527343 26.078126 50.632812-70.054688c1.710938-2.363281 1.914062-5.496094.523438-8.0625l-11.21875-20.710938c-1.996094-3.691406-6.609376-5.058593-10.292969-3.0625-3.6875 1.996094-5.058594 6.605469-3.0625 10.292969l8.945312 16.515625-61.367187 84.902344c-4.277344 5.921875 1.507812 13.910156 8.46875 11.683594l92.5-29.589844-13.195313 131.59375c-.753906 7.539062 8.855469 11.40625 13.53125 5.441406l86.554688-110.347656 56.792969 146.570312c2.601562 6.714844 12.253906 6.34375 14.34375-.535156l17.074218-56.214844c1.222656-4.011718-1.042968-8.253906-5.058594-9.472656zm0 0"/><path d="m498.78125 339.339844-89.605469-72.113282 38.113281-20.089843c3.710938-1.957031 5.132813-6.546875 3.179688-10.257813-1.957031-3.710937-6.550781-5.132812-10.261719-3.175781l-48.335937 25.476563c-4.839844 2.550781-5.457032 9.226562-1.21875 12.636718l76.753906 61.765625-98.417969-14.765625c-5.730469-.855468-10.265625 4.765625-8.238281 10.171875l49.664062 132.601563-103.664062-119.566406c-3.90625-4.507813-11.269531-2.945313-13.003906 2.765624l-21.914063 72.148438c-1.21875 4.011719 1.046875 8.253906 5.058594 9.472656 4.011719 1.214844 8.253906-1.046875 9.472656-5.058594l17.917969-58.992187 122.3125 141.078125c5.484375 6.328125 15.816406.277344 12.847656-7.636719l-59.941406-160.050781 113.394531 17.015625c7.636719 1.148437 11.902344-8.582031 5.886719-13.425781zm0 0"/><path d="m498.449219 204.253906-91.714844-5.683594 63.921875-145.683593c3.132812-7.140625-5.324219-13.824219-11.542969-9.101563l-160.953125 122.175782-34.328125-104.332032c-2.050781-6.238281-10.5625-7.105468-13.816406-1.378906l-58.351563 102.683594-88.226562-159.027344c-3.949219-7.117188-14.882812-3.8085938-14.210938 4.3125l13.445313 161.554688-91.710937-25.675782c-6.449219-1.804687-11.910157 5.050782-8.726563 10.929688l37.1875 68.660156c1.996094 3.6875 6.605469 5.058594 10.292969 3.058594 3.691406-1.996094 5.058594-6.605469 3.0625-10.292969l-28.648438-52.898437 84.96875 23.792968c5.089844 1.421875 10.054688-2.671875 9.617188-7.945312l-11.421875-137.238282 77.652343 139.960938c2.917969 5.265625 10.378907 5.109375 13.242188.070312l56.570312-99.550781 32.300782 98.171875c1.625 4.949219 7.65625 6.824219 11.800781 3.675782l146.140625-110.925782-56.542969 128.859375c-2.117187 4.824219 1.214844 10.300781 6.484375 10.628907l75.550782 4.683593-3.414063 1.800781c-7.003906 3.695313-4.324219 14.3125 3.546875 14.3125 2.550781 0 .984375.46875 30.894531-15.296874 6.765625-3.566407 4.570313-13.824219-3.070312-14.300782zm0 0"/><path d="m104.398438 296.375v-34.011719h16.722656c19.355468 0 31.578125-10.578125 31.578125-33.636719 0-20.71875-11.117188-32.128906-31.304688-32.128906-.277343 0-25.152343-.003906-25.425781.003906-3.882812.230469-6.703125 2.890626-6.703125 6.328126v93.445312c0 8.832031 15.132813 8.757812 15.132813 0zm0-85.332031c21.035156 0 33.167968-2.859375 33.167968 19.46875 0 12.082031-5.378906 17.957031-16.445312 17.957031h-16.722656zm0 0"/><path d="m229.128906 271.402344v-42.539063c0-20.503906-11.507812-32.265625-31.578125-32.265625-20.070312 0-31.578125 11.757813-31.578125 32.265625v42.539063c0 20.589844 11.507813 32.402344 31.578125 32.402344 20.070313 0 31.578125-11.8125 31.578125-32.402344zm-48.027344 0v-42.539063c0-11.992187 5.382813-17.820312 16.449219-17.820312 11.066407 0 16.449219 5.828125 16.449219 17.820312v42.539063c0 12.082031-5.382812 17.957031-16.449219 17.957031-11.066406 0-16.449219-5.875-16.449219-17.957031zm0 0"/><path d="m284.871094 298.261719 10.105468-37.539063 10.078126 37.445313c1.746093 7.425781 14.398437 7.5625 16.695312.210937 28.984375-100.257812 27.171875-93.472656 27.171875-95.039062 0-7.175782-12.703125-9.671875-14.742187-2.195313l-20.742188 73.617188-10.882812-40.582031c-2.214844-7.523438-13.6875-6.847657-15.316407.070312l-10.863281 40.511719-20.734375-73.59375c-2.050781-7.527344-14.75-4.988281-14.75 2.171875 0 1.570312-1.816406-5.195313 27.296875 94.992187 2.191406 7.457031 14.863281 7.21875 16.683594-.070312zm0 0"/><path d="m369.183594 302.910156c4.996094 0 9.214844-4.28125 9.214844-9.347656 0-5.230469-4.132813-9.488281-9.214844-9.488281-5.242188 0-9.347656 4.167969-9.347656 9.488281 0 5.15625 4.195312 9.347656 9.347656 9.347656zm0 0"/><path d="m369.117188 275.070312c4.195312 0 7.59375-3.402343 7.59375-7.59375v-63.113281c0-4.191406-3.398438-7.59375-7.59375-7.59375-4.195313 0-7.59375 3.402344-7.59375 7.59375v63.113281c0 4.191407 3.398437 7.59375 7.59375 7.59375zm0 0"/></svg>